# xmcd
#
# Track frame offsets:
#	150
#	17478
#	38511
#	51729
#	88799
#	105639
#	132533
#	168615
#	184266
#	210376
#
# Disc length: 3658 seconds
#
# Revision: 0
# Processed by: cddbd v1.5.2PL0 Copyright (c) Steve Scherf et al.
# Submitted via: EasyCDDAExtractor 15.2.5.1
#
DISCID=890e480a
DTITLE=9DW - RMX
DYEAR=1900
DGENRE=
TTITLE0=BLACK COFFEE [DJ TOSH REMIX]
TTITLE1=FARSIDE [DJ DUCT EDIT]
TTITLE2=BALANCER [FEAT. NON GENETIC FROM SHADOW HUNTAZ]
TTITLE3=FARSIDE [ACKKY - UNIVERSO MIX]
TTITLE4=THINKING MAKES A MISTAKE [WORLD FAMOUS - REMAKIN']
TTITLE5=MIGRANT [ INNER SCIENCE - THROUGH THIS MEDIUM MIX]
TTITLE6=TONY [ TIOVITA1 - TIOVITA'S SUMMER PANIC REMIX]
TTITLE7=BALANCER [ BROKEN HAZE REMIX FEAT. NON GENETIC FROM SHADOW HUNTAZ]
TTITLE8=THINKING MAKES A MISTAKE [ DJ TOSH REMIX]
TTITLE9=DATA
EXTD=
EXTT0=
EXTT1=
EXTT2=
EXTT3=
EXTT4=
EXTT5=
EXTT6=
EXTT7=
EXTT8=
EXTT9=
PLAYORDER=
